<?xml version="1.0" encoding="utf-8"?>
<!-- Generator: Adobe Illustrator 27.5.0, SVG Export Plug-In . SVG Version: 6.00 Build 0)  -->
<svg version="1.1" id="Layer_1" xmlns="http://www.w3.org/2000/svg" xmlns:xlink="http://www.w3.org/1999/xlink" x="0px" y="0px"
	 viewBox="0 0 316.751 193.909" style="enable-background:new 0 0 316.751 193.909;" xml:space="preserve">
<g>
	<path style="fill:#002C60;" d="M101.29,61.584c0,0-6.092-3.534-7.83-3.322c-1.256,0.153-9.923,2.077-10.149,15.081l15.378,4.75
		c0,0-0.339-8.819,6.333-11.082L101.29,61.584z"/>
	<path style="opacity:0.6;fill:#005AAA;" d="M101.615,69.231c-1.796-0.599-3.596-1.168-5.315-1.827
		c-3.375-1.295-6.643-2.825-9.85-4.478c-1.705,2.213-3.053,5.496-3.139,10.416l15.378,4.75
		C98.689,78.093,98.482,72.663,101.615,69.231z"/>
	<g>
		<g>
			<path style="fill:#4A0004;" d="M187.082,63.822l8.979,103.513l2.475,2.093l108.838-62.431c0,0,5.346-2.733,3.033-8.199
				l-88.192-80.425L187.082,63.822z"/>
			<path style="fill:#7C0E1D;" d="M187.796,62.093l7.817,103.538l1.599,1.738l110.105-62.534c0,0,5.038-2.792,2.769-6.701
				l-87.156-81.49L187.796,62.093z"/>
			<path style="fill:#7C0E1D;" d="M310.086,98.134l-1.984-1.855c0.436,1.522,0.668,3.104,0.218,4.596
				c-0.692,2.294-2.65,3.448-4.729,4.372c-2.541,1.128-106.378,62.123-106.378,62.123l110.105-62.534
				C307.317,104.835,312.355,102.043,310.086,98.134z"/>
			<path style="fill:#912131;" d="M131.698,86.379l66.837,83.049L83.071,186.084c0,0-3.599,0.271-5.36-2.929L8.337,81.553
				c0,0-2.77-2.965,2.605-3.966L131.698,86.379z"/>
			<path style="fill:#7C0E1D;" d="M86.866,181.77c-0.69,0.382-3.972,0.155-4.718-0.446c-1.987-1.603-3.075-3.896-4.742-5.768
				c-7.285-8.179-14.039-16.849-20.9-25.381l21.701,31.783c2.629,2.69,5.021,2.073,5.021,2.073l113.985-16.663L86.866,181.77z"/>
			<path style="fill:#B62436;" d="M83.349,180.453c4.292-1.021,29.299-6.303,113.225-13.89L132.193,85.18L11.438,76.39
				c-1.387,0.258-2.229,0.647-2.719,1.081c1.66,2.648,36.206,53.433,42.632,62.354c6.123,8.505,12.38,16.901,18.578,25.349
				c3.824,5.212,7.574,10.494,11.047,15.948C81.756,180.865,82.55,180.643,83.349,180.453z"/>
		</g>
		<path style="fill:#F6EEE7;" d="M195.861,165.898c0,0-71.584,4.957-115.818,14.328l-69.923-103.2l13.939-0.539L195.861,165.898z"/>
		<path style="opacity:0.9;fill:#E1DAD3;" d="M195.861,165.898c0,0-71.584,4.957-115.818,14.328l-69.923-103.2l13.939-0.539
			L195.861,165.898z"/>
		<path style="fill:#F6EEE7;" d="M195.861,165.898c0,0-86.286-0.917-115.003,13.227L10.914,76.529l13.146-0.042L195.861,165.898z"/>
		<path style="opacity:0.5;fill:#E1DAD3;" d="M195.861,165.898c0,0-78.386-7.955-113.667,11.041L13.499,76.524l10.562-0.037
			L195.861,165.898z"/>
		<g>
			<path style="fill:#F6EEE7;" d="M298.703,92.278l8.029,7.876c0,0-54.711,27.551-110.871,65.744
				c-31.301-1.88-65.662-7.85-113.589,7.908c-44.874-60.485-68.917-100.2-68.917-100.2l12.921-6.76l65.398,84.29
				c0,0,35.042-26.893,93.825-5.096C203.852,96.8,249.781,77.669,298.703,92.278z"/>
			<path style="opacity:0.5;fill:#E1DAD3;" d="M213.194,153.159c4.335-3.148,8.726-6.217,13.169-9.21
				c8.885-5.985,17.955-11.691,27.134-17.212c4.589-2.76,9.202-5.479,13.835-8.165c4.561-2.645,9.092-5.408,13.773-7.834
				c8.118-4.203,16.84-7.101,25.004-11.195l-7.406-7.265C249.781,77.669,203.852,96.8,185.5,146.041
				c-58.783-21.797-93.825,5.096-93.825,5.096l-65.398-84.29l-12.921,6.76c0,0,24.043,39.715,68.917,100.2
				c47.927-15.758,82.289-9.788,113.589-7.908c2.048-1.393,4.092-2.77,6.132-4.132C205.52,158.655,209.396,155.918,213.194,153.159z
				"/>
			<path style="fill:#F6EEE7;" d="M299.225,89.42l7.684,8.15c0,0-58.001,23.54-111.047,68.328
				c-31.301-1.88-65.662-7.85-113.589,7.908c-44.874-60.485-68.917-100.2-68.917-100.2l12.921-6.76l65.398,84.29
				c0,0,35.042-26.893,93.825-5.096C203.852,96.8,250.305,74.812,299.225,89.42z"/>
			<path style="opacity:0.5;fill:#E1DAD3;" d="M299.225,89.42l7.684,8.15c0,0-51.361,15.252-111.047,68.328
				c-31.301-1.88-65.662-7.85-113.589,7.908c-44.874-60.485-68.917-100.2-68.917-100.2l12.921-6.76l65.398,84.29
				c0,0,35.042-26.893,93.825-5.096C203.852,96.8,250.305,74.812,299.225,89.42z"/>
			<path style="fill:#F6EEE7;" d="M299.225,89.42l5.91,7.419c0,0-54.758,17.183-109.273,69.06
				c-31.301-1.88-65.662-7.85-113.589,7.908c-44.874-60.485-68.917-100.2-68.917-100.2l12.921-6.76l65.398,84.29
				c0,0,35.042-26.893,93.825-5.096C203.852,96.8,250.305,74.812,299.225,89.42z"/>
			<path style="opacity:0.5;fill:#E1DAD3;" d="M298.733,90.61l5.772,4.411c0,0-52.771,11.781-108.645,70.877
				c-25.414-5.144-78.914-7.467-110.525,4.348c-43.974-57.303-69.502-98.808-69.502-98.808l10.442-4.592l65.398,84.29
				c0,0,35.042-26.893,93.825-5.096C203.852,96.8,249.811,76.002,298.733,90.61z"/>
			<path style="opacity:0.5;fill:#E1DAD3;" d="M298.733,90.61C249.811,76.002,203.852,96.8,185.5,146.041
				c-58.783-21.797-93.825,5.096-93.825,5.096l-65.398-84.29l-7.412,3.259c2.612,3.901,5.083,7.896,7.509,11.914
				c2.758,4.569,58.69,82.641,60.91,85.421c40.878-12.552,84.145-6.487,108.578-1.542c0.134-0.141,0.266-0.278,0.398-0.418
				c1.814-2.564,3.924-4.926,6.132-7.154c3.246-3.279,6.743-6.294,10.009-9.551c3.797-3.789,7.669-7.502,11.642-11.105
				c7.623-6.908,15.73-13.142,24.441-18.625c8.672-5.461,17.756-10.263,27.115-14.433c4.813-2.145,9.676-4.06,14.684-5.707
				c4.451-1.462,8.73-3.691,13.361-4.542L298.733,90.61z"/>
			<path style="fill:#F6EEE7;" d="M300.656,89.099l4.565,4.193c0,0-57.995,9.249-109.359,72.607
				c-38.681-12.246-77.759-9.135-108.763,0.083c-37.795-49.143-68.884-98.534-68.884-98.534s6.339-4.484,14.178-5.359l58.192,85.355
				c0,0,52.305-18.013,101.475,8.659C210.664,111.077,254.026,85.502,300.656,89.099z"/>
			<path style="opacity:0.5;fill:#C9C4BE;" d="M300.656,89.099c-46.63-3.597-89.992,21.979-108.598,67.004
				c-49.169-26.672-101.475-8.659-101.475-8.659L32.392,62.088c-4.559,0.509-8.607,2.237-11.199,3.596
				c2.766,4.26,65.458,95.694,65.979,96.41c4.579-1.413,10.757-4.001,15.49-4.831c5.306-0.929,31.437-8.593,79.562,3.401
				c4.55,1.133,9.111,2.32,13.52,3.93c0.302,0.111,0.605,0.225,0.908,0.34c0.768-0.938,1.535-1.864,2.306-2.777
				c2.415-3.941,5.276-7.633,8.079-11.274c3.025-3.933,6.053-7.84,9.403-11.505c3.468-3.791,7.155-7.387,11.032-10.761
				c7.328-6.376,15.48-11.722,24.014-16.338c8.521-4.609,17.387-8.719,26.357-12.37c8.348-3.396,17.016-6.487,25.949-7.928
				L300.656,89.099z"/>
			<g>
				<path style="fill:#F6EEE7;" d="M21.316,62.051c27.413,42.045,66.95,97.248,66.95,97.248s57.511-20.574,107.595,6.6
					l-64.587-81.644C104.138,63.072,56.89,48.338,21.316,62.051z"/>
				<path style="opacity:0.5;fill:#E1DAD3;" d="M110.913,72.193c2.215,1.055,4.404,2.21,6.372,3.685
					c1.924,1.442,3.752,3.031,5.518,4.661c7.444,6.867,13.598,14.903,19.858,22.821c6.837,8.647,13.823,17.174,20.621,25.851
					c3.378,4.311,6.646,8.708,10.035,13.011c3.265,4.144,6.476,8.36,9.913,12.363c2.536,2.956,5.174,5.855,7.732,8.816
					c1.64,0.784,3.273,1.614,4.899,2.497l-64.587-81.644c-8.927-6.968-20.031-13.238-32.178-18.027
					C102.771,68.705,106.919,70.293,110.913,72.193z"/>
				<path style="opacity:0.5;fill:#F6EEE7;" d="M175.022,154.787c-3.896-1.796-7.92-3.312-12.022-4.566
					c-3.92-1.198-7.939-2.284-11.985-2.972c-10.926-1.851-21.976-0.979-32.992-1.115c-2.725-0.034-5.451-0.123-8.167-0.346
					c-1.833-0.15-3.617-0.404-5.346-1.064c-3.111-1.188-5.804-3.221-8.094-5.614c-4.967-5.192-49.562-70.998-49.39-72.762
					c0.176-1.792,3.296-4.377,4.787-5.285c3.438-2.098,7.772-2.507,11.716-2.567c3.723-0.056,7.39,0.091,11.052,0.523
					c-18.167-3.56-36.944-3.259-53.265,3.032c27.413,42.045,66.95,97.248,66.95,97.248s50.67-18.125,98.307,2.122
					C182.951,158.846,179.047,156.643,175.022,154.787z"/>
				<path style="fill:#F6EEE7;" d="M306.346,90.57c-52.459-51.584-89.624-85.215-89.624-85.215s-47.224,12.941-85.448,78.899
					l64.587,81.644C208.904,139.066,244.133,103.281,306.346,90.57z"/>
				<path style="opacity:0.5;fill:#E1DAD3;" d="M291.799,88.544c-4.98,1.548-9.84,3.512-14.715,5.361
					c-4.746,1.801-9.417,3.806-13.984,6.021c-8.952,4.342-17.52,9.433-25.765,14.994c-7.395,4.985-15.063,11.494-24.587,10.257
					c-4.483-0.583-8.58-2.811-12.219-5.387c-3.768-2.666-7.383-5.61-10.778-8.734c-7.219-6.642-13.64-14.149-19.453-22.038
					c-2.851-3.868-5.567-7.838-8.112-11.913c-2.365-3.784-4.888-7.614-6.19-11.924c-1.316-4.356-1.249-9,0.18-13.324
					c0.588-1.78,1.348-3.482,2.185-5.149c-9.049,10.043-18.305,22.396-27.086,37.547l64.587,81.644
					c13.043-26.832,48.272-62.617,110.484-75.328c-1.457-1.432-2.898-2.848-4.332-4.252
					C298.559,86.768,295.151,87.502,291.799,88.544z"/>
				<path style="opacity:0.8;fill:#E1DAD3;" d="M214.722,138.096c-3.101,2.694-5.954,5.569-8.368,8.895
					c-1.938,2.671-4.043,5.874-7.15,7.285c-3.203,1.454-6.338-1.307-8.41-3.487c-1.223-1.286-2.289-2.69-3.441-4.035
					c-1.799-2.102-3.574-4.224-5.357-6.341c-6.891-8.186-14.084-16.089-20.684-24.52c-3.213-4.104-6.33-8.282-9.31-12.56
					c-2.469-3.544-5.249-6.884-7.594-10.512c-2.206-3.413-3.895-7.157-4.272-11.246c-0.338-3.674,0.263-7.47,1.11-11.04
					c0.269-1.131,0.575-2.256,0.911-3.372c-3.675,5.261-7.317,10.942-10.882,17.092l64.587,81.644
					c4.779-9.833,12.543-20.868,23.519-31.528C217.779,135.551,216.223,136.792,214.722,138.096z"/>
			</g>
		</g>
	</g>
	<g>
		<path style="fill:#E1DAD3;" d="M119.853,104.266c-2.953-9.227-3.432-16.268-3.702-21.699c-1.489-1.019-3.008-1.98-4.506-2.919
			c-4.054-2.54-4.871-12.862-12.334-13.202c0.495,1.64,1.011,9.164,1.205,11.36c1.188,13.4,10.33,45.802,23.22,53.435l1.526-8.311
			c0,0,4.937,4.575,12.23,5.762C137.493,128.691,126.638,125.469,119.853,104.266z"/>
		<path style="fill:#005AAA;" d="M93.714,58.19c0,0,7.99,2.314,9.177,15.714c1.188,13.4,10.329,45.802,23.221,53.435l1.374-9.843
			c0,0,5.089,6.106,12.382,7.294c0,0-10.856-3.222-17.64-24.425c-6.785-21.203-0.509-30.871-8.651-35.96
			C105.436,59.317,93.714,58.19,93.714,58.19z"/>
		<path style="opacity:0.6;fill:#005AAA;" d="M105.928,61.176c3.339,2.035,6.789,4.517,7.66,8.553
			c0.544,2.521,0.644,5.092,0.794,7.658c0.156,2.644,0.394,5.273,0.851,7.886c0.457,2.619,1.05,5.212,1.744,7.777
			c0.332,1.224,0.663,2.453,1.031,3.667c0.351,1.161,0.768,2.295,0.973,3.495c0.033,0.189-0.198,0.293-0.31,0.13
			c-0.664-0.964-1.25-1.993-2.014-2.88c1.092,3.018,2.443,5.924,3.841,8.81c-0.328-1.231-0.541-2.492-0.606-3.754
			c-0.011-0.201,0.273-0.217,0.333-0.045c1.49,4.197,4.092,8.007,7.038,11.314c1.08,1.213,2.221,2.386,3.423,3.488
			c-2.872-3.669-5.945-9.055-8.458-16.91c-6.785-21.203-0.509-30.871-8.651-35.96c-2.785-1.741-5.99-3.018-9.001-3.945
			C105.035,60.674,105.488,60.907,105.928,61.176z"/>
		<path style="fill:#005AAA;" d="M125.432,125.135c-0.006,0.137-5.393-5.705-7.457-8.999c-1.661-2.651-3.078-5.446-4.274-8.335
			c-4.162-8.629-6.166-18.319-7.739-27.69c-0.704-4.191-1.356-8.354-2.909-12.337c-0.7-1.793-1.555-3.566-2.63-5.181
			c-1.767-1.812-3.9-3.156-6.172-4.341c-0.347-0.042-0.538-0.062-0.538-0.062s7.99,2.314,9.177,15.714
			c1.188,13.4,10.329,45.802,23.221,53.435l0.946-6.775C126.782,119.483,125.563,122.506,125.432,125.135z"/>
	</g>
</g>
</svg>
